<?xml version="1.0" encoding="iso-8859-1"?>
<!-- Generator: Adobe Illustrator 19.0.0, SVG Export Plug-In . SVG Version: 6.00 Build 0)  -->
<!-- License: CC0. Made by SVG Repo: https://www.svgrepo.com/svg/177826/counter-technology -->
<svg version="1.1" id="Layer_1" xmlns="http://www.w3.org/2000/svg" xmlns:xlink="http://www.w3.org/1999/xlink" x="0px" y="0px"
	 viewBox="0 0 512 512" style="enable-background:new 0 0 512 512;" xml:space="preserve">
<path style="fill:#13B7DC;" d="M213.995,501.801L213.995,501.801c-48.454,0-87.735-39.28-87.735-87.735V125.781
	c0-48.454,39.28-87.735,87.735-87.735h111.853c61.681,0,104.105,61.966,81.795,119.47L295.788,445.801
	C282.691,479.557,250.203,501.801,213.995,501.801z"/>
<g>
	<circle style="fill:#E6E6E6;" cx="214.622" cy="130.693" r="29.453"/>
	<circle style="fill:#E6E6E6;" cx="323.866" cy="130.693" r="29.453"/>
	<circle style="fill:#E6E6E6;" cx="217.835" cy="408.091" r="29.453"/>
	<circle style="fill:#E6E6E6;" cx="217.835" cy="269.922" r="29.453"/>
</g>
<g>
	<rect x="98.412" y="230.828" style="fill:#FFAE3E;" width="27.847" height="91.038"/>
	<rect x="223.72" y="10.199" style="fill:#FFAE3E;" width="91.038" height="27.847"/>
	
		<rect x="331.143" y="314.572" transform="matrix(0.9302 0.3671 -0.3671 0.9302 156.2787 -101.5315)" style="fill:#FFAE3E;" width="27.847" height="91.04"/>
</g>
<path d="M406.657,70.456c-18.266-26.681-48.475-42.609-80.809-42.609h-0.886V10.199C324.961,4.566,320.394,0,314.762,0h-91.038
	c-5.632,0-10.199,4.566-10.199,10.199v17.654c-53.784,0.255-97.464,44.085-97.464,97.929v94.851H98.413
	c-5.632,0-10.199,4.566-10.199,10.199v91.037c0,5.633,4.567,10.199,10.199,10.199h17.648v81.999
	c0,54.001,43.933,97.934,97.934,97.934c19.83,0,38.962-5.922,55.325-17.124c16.364-11.203,28.804-26.897,35.978-45.385l15.205-39.19
	l17.07,6.737c1.229,0.485,2.495,0.715,3.741,0.715c4.064,0,7.907-2.447,9.49-6.458l33.421-84.681
	c0.993-2.516,0.947-5.324-0.132-7.804c-1.077-2.481-3.095-4.434-5.612-5.426l-17.67-6.973l56.337-145.204
	C428.844,131.061,424.923,97.136,406.657,70.456z M335.574,394.32l-6.928-2.734l25.932-65.706l6.928,2.734L335.574,394.32z
	 M233.922,20.398h70.64v7.448h-70.64V20.398z M108.612,311.669v-70.639h7.448v70.639H108.612z M325.846,48.245
	c25.982,0,49.301,12.296,63.979,33.735s17.705,47.625,8.307,71.847L286.279,442.112c-11.664,30.064-40.038,49.49-72.285,49.49
	c-42.753,0-77.535-34.782-77.535-77.535V125.781c0-42.753,34.783-77.535,77.535-77.535
	C213.995,48.245,325.846,48.245,325.846,48.245z"/>
<path d="M214.619,170.342c21.865,0,39.652-17.787,39.652-39.652s-17.787-39.652-39.652-39.652s-39.652,17.787-39.652,39.652
	S192.755,170.342,214.619,170.342z M214.619,111.435c10.616,0,19.254,8.638,19.254,19.254s-8.638,19.254-19.254,19.254
	s-19.254-8.638-19.254-19.254S204.002,111.435,214.619,111.435z"/>
<path d="M323.865,91.037c-21.865,0-39.652,17.787-39.652,39.652s17.787,39.652,39.652,39.652c21.865,0,39.652-17.787,39.652-39.652
	S345.729,91.037,323.865,91.037z M323.865,149.944c-10.616,0-19.254-8.638-19.254-19.254s8.638-19.254,19.254-19.254
	c10.616,0,19.254,8.638,19.254,19.254S334.481,149.944,323.865,149.944z"/>
<path d="M217.833,368.433c-21.865,0-39.652,17.787-39.652,39.652s17.787,39.652,39.652,39.652s39.652-17.788,39.652-39.652
	S239.697,368.433,217.833,368.433z M217.833,427.34c-10.616,0-19.254-8.638-19.254-19.254c0-10.616,8.638-19.254,19.254-19.254
	s19.254,8.638,19.254,19.254C237.087,418.703,228.449,427.34,217.833,427.34z"/>
<path d="M217.833,230.27c-21.865,0-39.652,17.787-39.652,39.652s17.787,39.652,39.652,39.652s39.652-17.787,39.652-39.652
	S239.697,230.27,217.833,230.27z M217.833,289.177c-10.616,0-19.254-8.638-19.254-19.254c0-10.616,8.638-19.254,19.254-19.254
	s19.254,8.638,19.254,19.254C237.087,280.539,228.449,289.177,217.833,289.177z"/>
<path d="M243.561,346.502c0-5.633-4.567-10.199-10.199-10.199h-63.19c-5.632,0-10.199,4.566-10.199,10.199
	c0,5.633,4.567,10.199,10.199,10.199h63.19C238.995,356.701,243.561,352.135,243.561,346.502z"/>
<path d="M270.848,336.302h-6.427c-5.632,0-10.199,4.566-10.199,10.199c0,5.633,4.567,10.199,10.199,10.199h6.427
	c5.632,0,10.199-4.566,10.199-10.199C281.047,340.869,276.481,336.302,270.848,336.302z"/>
<path d="M187.308,198.14c-5.632,0-10.199,4.566-10.199,10.199c0,5.633,4.567,10.199,10.199,10.199h63.19
	c5.632,0,10.199-4.566,10.199-10.199c0-5.633-4.567-10.199-10.199-10.199H187.308z"/>
<path d="M201.231,82.518h25.704c5.632,0,10.199-4.566,10.199-10.199c0-5.633-4.567-10.199-10.199-10.199h-25.704
	c-5.632,0-10.199,4.566-10.199,10.199C191.032,77.951,195.599,82.518,201.231,82.518z"/>
<path d="M311.548,82.518h25.704c5.632,0,10.199-4.566,10.199-10.199c0-5.633-4.567-10.199-10.199-10.199h-25.704
	c-5.632,0-10.199,4.566-10.199,10.199C301.349,77.951,305.915,82.518,311.548,82.518z"/>
</svg>
